<mxfile host="app.diagrams.net" modified="2023-02-22T06:07:16.964Z" agent="5.0 (Macintosh; Intel Mac OS X 10_15_7) AppleWebKit/537.36 (KHTML, like Gecko) Chrome/109.0.0.0 Safari/537.36" etag="QjcBWg6x2AW8C1DrVB5a" version="20.8.22" type="github">
  <diagram id="C5RBs43oDa-KdzZeNtuy" name="Page-1">
    <mxGraphModel dx="783" dy="570" grid="1" gridSize="10" guides="1" tooltips="1" connect="1" arrows="1" fold="1" page="1" pageScale="1" pageWidth="827" pageHeight="1169" math="0" shadow="0">
      <root>
        <mxCell id="WIyWlLk6GJQsqaUBKTNV-0" />
        <mxCell id="WIyWlLk6GJQsqaUBKTNV-1" parent="WIyWlLk6GJQsqaUBKTNV-0" />
        <mxCell id="0s8MjjynVh8SKdPL8uUa-4" value="" style="edgeStyle=orthogonalEdgeStyle;rounded=0;orthogonalLoop=1;jettySize=auto;html=1;" edge="1" parent="WIyWlLk6GJQsqaUBKTNV-1" source="0s8MjjynVh8SKdPL8uUa-0" target="0s8MjjynVh8SKdPL8uUa-3">
          <mxGeometry relative="1" as="geometry" />
        </mxCell>
        <mxCell id="0s8MjjynVh8SKdPL8uUa-0" value="开始" style="ellipse;whiteSpace=wrap;html=1;" vertex="1" parent="WIyWlLk6GJQsqaUBKTNV-1">
          <mxGeometry x="230" y="70" width="120" height="70" as="geometry" />
        </mxCell>
        <mxCell id="0s8MjjynVh8SKdPL8uUa-6" value="" style="edgeStyle=orthogonalEdgeStyle;rounded=0;orthogonalLoop=1;jettySize=auto;html=1;" edge="1" parent="WIyWlLk6GJQsqaUBKTNV-1" source="0s8MjjynVh8SKdPL8uUa-3" target="0s8MjjynVh8SKdPL8uUa-5">
          <mxGeometry relative="1" as="geometry" />
        </mxCell>
        <mxCell id="0s8MjjynVh8SKdPL8uUa-3" value="选购套餐" style="whiteSpace=wrap;html=1;" vertex="1" parent="WIyWlLk6GJQsqaUBKTNV-1">
          <mxGeometry x="230" y="225" width="120" height="60" as="geometry" />
        </mxCell>
        <mxCell id="0s8MjjynVh8SKdPL8uUa-8" value="" style="edgeStyle=orthogonalEdgeStyle;rounded=0;orthogonalLoop=1;jettySize=auto;html=1;" edge="1" parent="WIyWlLk6GJQsqaUBKTNV-1" source="0s8MjjynVh8SKdPL8uUa-5" target="0s8MjjynVh8SKdPL8uUa-7">
          <mxGeometry relative="1" as="geometry" />
        </mxCell>
        <mxCell id="0s8MjjynVh8SKdPL8uUa-5" value="前端判断参数" style="rhombus;whiteSpace=wrap;html=1;" vertex="1" parent="WIyWlLk6GJQsqaUBKTNV-1">
          <mxGeometry x="250" y="355" width="80" height="80" as="geometry" />
        </mxCell>
        <mxCell id="0s8MjjynVh8SKdPL8uUa-13" value="" style="edgeStyle=orthogonalEdgeStyle;rounded=0;orthogonalLoop=1;jettySize=auto;html=1;" edge="1" parent="WIyWlLk6GJQsqaUBKTNV-1" source="0s8MjjynVh8SKdPL8uUa-7" target="0s8MjjynVh8SKdPL8uUa-12">
          <mxGeometry relative="1" as="geometry" />
        </mxCell>
        <mxCell id="0s8MjjynVh8SKdPL8uUa-7" value="返回错误信息" style="whiteSpace=wrap;html=1;" vertex="1" parent="WIyWlLk6GJQsqaUBKTNV-1">
          <mxGeometry x="390" y="365" width="120" height="60" as="geometry" />
        </mxCell>
        <mxCell id="0s8MjjynVh8SKdPL8uUa-12" value="结束" style="ellipse;whiteSpace=wrap;html=1;" vertex="1" parent="WIyWlLk6GJQsqaUBKTNV-1">
          <mxGeometry x="410" y="250" width="80" height="45" as="geometry" />
        </mxCell>
      </root>
    </mxGraphModel>
  </diagram>
</mxfile>
